%TF.GenerationSoftware,KiCad,Pcbnew,8.0.4*%
%TF.CreationDate,2024-09-13T19:46:17+02:00*%
%TF.ProjectId,smurf-box,736d7572-662d-4626-9f78-2e6b69636164,rev?*%
%TF.SameCoordinates,Original*%
%TF.FileFunction,Copper,L2,Bot*%
%TF.FilePolarity,Positive*%
%FSLAX46Y46*%
G04 Gerber Fmt 4.6, Leading zero omitted, Abs format (unit mm)*
G04 Created by KiCad (PCBNEW 8.0.4) date 2024-09-13 19:46:17*
%MOMM*%
%LPD*%
G01*
G04 APERTURE LIST*
G04 Aperture macros list*
%AMRoundRect*
0 Rectangle with rounded corners*
0 $1 Rounding radius*
0 $2 $3 $4 $5 $6 $7 $8 $9 X,Y pos of 4 corners*
0 Add a 4 corners polygon primitive as box body*
4,1,4,$2,$3,$4,$5,$6,$7,$8,$9,$2,$3,0*
0 Add four circle primitives for the rounded corners*
1,1,$1+$1,$2,$3*
1,1,$1+$1,$4,$5*
1,1,$1+$1,$6,$7*
1,1,$1+$1,$8,$9*
0 Add four rect primitives between the rounded corners*
20,1,$1+$1,$2,$3,$4,$5,0*
20,1,$1+$1,$4,$5,$6,$7,0*
20,1,$1+$1,$6,$7,$8,$9,0*
20,1,$1+$1,$8,$9,$2,$3,0*%
G04 Aperture macros list end*
%TA.AperFunction,ComponentPad*%
%ADD10R,1.295400X1.295400*%
%TD*%
%TA.AperFunction,ComponentPad*%
%ADD11C,1.295400*%
%TD*%
%TA.AperFunction,ComponentPad*%
%ADD12R,2.000000X1.200000*%
%TD*%
%TA.AperFunction,ComponentPad*%
%ADD13O,2.000000X1.200000*%
%TD*%
%TA.AperFunction,ComponentPad*%
%ADD14RoundRect,0.250000X-0.600000X-0.750000X0.600000X-0.750000X0.600000X0.750000X-0.600000X0.750000X0*%
%TD*%
%TA.AperFunction,ComponentPad*%
%ADD15O,1.700000X2.000000*%
%TD*%
%TA.AperFunction,ComponentPad*%
%ADD16C,1.600000*%
%TD*%
%TA.AperFunction,ComponentPad*%
%ADD17O,1.600000X1.600000*%
%TD*%
%TA.AperFunction,ComponentPad*%
%ADD18R,1.050000X1.500000*%
%TD*%
%TA.AperFunction,ComponentPad*%
%ADD19O,1.050000X1.500000*%
%TD*%
%TA.AperFunction,ComponentPad*%
%ADD20R,1.500000X1.050000*%
%TD*%
%TA.AperFunction,ComponentPad*%
%ADD21O,1.500000X1.050000*%
%TD*%
%TA.AperFunction,ComponentPad*%
%ADD22RoundRect,0.250000X-0.725000X0.600000X-0.725000X-0.600000X0.725000X-0.600000X0.725000X0.600000X0*%
%TD*%
%TA.AperFunction,ComponentPad*%
%ADD23O,1.950000X1.700000*%
%TD*%
%TA.AperFunction,ComponentPad*%
%ADD24RoundRect,0.250000X0.750000X-0.600000X0.750000X0.600000X-0.750000X0.600000X-0.750000X-0.600000X0*%
%TD*%
%TA.AperFunction,ComponentPad*%
%ADD25O,2.000000X1.700000*%
%TD*%
%TA.AperFunction,ComponentPad*%
%ADD26RoundRect,0.250000X0.725000X-0.600000X0.725000X0.600000X-0.725000X0.600000X-0.725000X-0.600000X0*%
%TD*%
%TA.AperFunction,ComponentPad*%
%ADD27R,1.700000X1.700000*%
%TD*%
%TA.AperFunction,ComponentPad*%
%ADD28O,1.700000X1.700000*%
%TD*%
%TA.AperFunction,Conductor*%
%ADD29C,0.200000*%
%TD*%
G04 APERTURE END LIST*
D10*
%TO.P,U4,1,1A*%
%TO.N,Net-(U1-GPIO19)*%
X114800000Y-89000000D03*
D11*
%TO.P,U4,2,1B*%
%TO.N,Net-(U1-GPIO22)*%
X117340000Y-89000000D03*
%TO.P,U4,3,1Y*%
%TO.N,Net-(U4-1Y)*%
X119880000Y-89000000D03*
%TO.P,U4,4,2A*%
%TO.N,Net-(U1-GPIO21)*%
X122420000Y-89000000D03*
%TO.P,U4,5,2B*%
%TO.N,Net-(U1-GPIO22)*%
X124960000Y-89000000D03*
%TO.P,U4,6,2Y*%
%TO.N,Net-(U4-2Y)*%
X127500000Y-89000000D03*
%TO.P,U4,7,GND*%
%TO.N,GND*%
X130040000Y-89000000D03*
%TO.P,U4,8,3Y*%
%TO.N,unconnected-(U4-3Y-Pad8)*%
X130040000Y-81380000D03*
%TO.P,U4,9,3A*%
%TO.N,unconnected-(U4-3A-Pad9)*%
X127500000Y-81380000D03*
%TO.P,U4,10,3B*%
%TO.N,unconnected-(U4-3B-Pad10)*%
X124960000Y-81380000D03*
%TO.P,U4,11,4Y*%
%TO.N,unconnected-(U4-4Y-Pad11)*%
X122420000Y-81380000D03*
%TO.P,U4,12,4A*%
%TO.N,unconnected-(U4-4A-Pad12)*%
X119880000Y-81380000D03*
%TO.P,U4,13,4B*%
%TO.N,unconnected-(U4-4B-Pad13)*%
X117340000Y-81380000D03*
%TO.P,U4,14,VCC*%
%TO.N,+5V*%
X114800000Y-81380000D03*
%TD*%
D10*
%TO.P,U2,1,1A*%
%TO.N,Net-(U1-MTDO{slash}GPIO15{slash}ADC2_CH3)*%
X114800000Y-124120000D03*
D11*
%TO.P,U2,2,1B*%
%TO.N,Net-(U1-GPIO22)*%
X117340000Y-124120000D03*
%TO.P,U2,3,1Y*%
%TO.N,Net-(U2-1Y)*%
X119880000Y-124120000D03*
%TO.P,U2,4,2A*%
%TO.N,Net-(U1-ADC2_CH2{slash}GPIO2)*%
X122420000Y-124120000D03*
%TO.P,U2,5,2B*%
%TO.N,Net-(U1-GPIO22)*%
X124960000Y-124120000D03*
%TO.P,U2,6,2Y*%
%TO.N,Net-(U2-2Y)*%
X127500000Y-124120000D03*
%TO.P,U2,7,GND*%
%TO.N,GND*%
X130040000Y-124120000D03*
%TO.P,U2,8,3Y*%
%TO.N,Net-(U2-3Y)*%
X130040000Y-116500000D03*
%TO.P,U2,9,3A*%
%TO.N,Net-(U1-ADC2_CH0{slash}GPIO4)*%
X127500000Y-116500000D03*
%TO.P,U2,10,3B*%
%TO.N,Net-(U1-GPIO22)*%
X124960000Y-116500000D03*
%TO.P,U2,11,4Y*%
%TO.N,Net-(U2-4Y)*%
X122420000Y-116500000D03*
%TO.P,U2,12,4A*%
%TO.N,Net-(U1-GPIO0{slash}BOOT{slash}ADC2_CH1)*%
X119880000Y-116500000D03*
%TO.P,U2,13,4B*%
%TO.N,Net-(U1-GPIO22)*%
X117340000Y-116500000D03*
%TO.P,U2,14,VCC*%
%TO.N,+5V*%
X114800000Y-116500000D03*
%TD*%
D12*
%TO.P,U1,1,3V3*%
%TO.N,+3V3*%
X80800000Y-79596560D03*
D13*
%TO.P,U1,2,CHIP_PU*%
%TO.N,unconnected-(U1-CHIP_PU-Pad2)*%
X80800000Y-82136560D03*
%TO.P,U1,3,SENSOR_VP/GPIO36/ADC1_CH0*%
%TO.N,unconnected-(U1-SENSOR_VP{slash}GPIO36{slash}ADC1_CH0-Pad3)*%
X80800000Y-84676560D03*
%TO.P,U1,4,SENSOR_VN/GPIO39/ADC1_CH3*%
%TO.N,unconnected-(U1-SENSOR_VN{slash}GPIO39{slash}ADC1_CH3-Pad4)*%
X80800000Y-87216560D03*
%TO.P,U1,5,VDET_1/GPIO34/ADC1_CH6*%
%TO.N,unconnected-(U1-VDET_1{slash}GPIO34{slash}ADC1_CH6-Pad5)*%
X80800000Y-89756560D03*
%TO.P,U1,6,VDET_2/GPIO35/ADC1_CH7*%
%TO.N,unconnected-(U1-VDET_2{slash}GPIO35{slash}ADC1_CH7-Pad6)*%
X80800000Y-92296560D03*
%TO.P,U1,7,32K_XP/GPIO32/ADC1_CH4*%
%TO.N,Net-(DAC1-Pin_4)*%
X80800000Y-94836560D03*
%TO.P,U1,8,32K_XN/GPIO33/ADC1_CH5*%
%TO.N,Net-(DAC1-Pin_3)*%
X80800000Y-97376560D03*
%TO.P,U1,9,DAC_1/ADC2_CH8/GPIO25*%
%TO.N,Net-(GPS1-Pin_2)*%
X80800000Y-99916560D03*
%TO.P,U1,10,DAC_2/ADC2_CH9/GPIO26*%
%TO.N,Net-(GPS1-Pin_1)*%
X80800000Y-102456560D03*
%TO.P,U1,11,ADC2_CH7/GPIO27*%
%TO.N,Net-(LAP/MT1-Pin_2)*%
X80800000Y-104996560D03*
%TO.P,U1,12,MTMS/GPIO14/ADC2_CH6*%
%TO.N,Net-(FCK1-Pin_2)*%
X80800000Y-107536560D03*
%TO.P,U1,13,MTDI/GPIO12/ADC2_CH5*%
%TO.N,Net-(PIT1-Pin_2)*%
X80800000Y-110076560D03*
%TO.P,U1,14,GND*%
%TO.N,GND*%
X80800000Y-112616560D03*
%TO.P,U1,15,MTCK/GPIO13/ADC2_CH4*%
%TO.N,Net-(TIMER1-Pin_2)*%
X80800000Y-115156560D03*
%TO.P,U1,16,SD_DATA2/GPIO9*%
%TO.N,unconnected-(U1-SD_DATA2{slash}GPIO9-Pad16)*%
X80800000Y-117696560D03*
%TO.P,U1,17,SD_DATA3/GPIO10*%
%TO.N,unconnected-(U1-SD_DATA3{slash}GPIO10-Pad17)*%
X80800000Y-120236560D03*
%TO.P,U1,18,CMD*%
%TO.N,unconnected-(U1-CMD-Pad18)*%
X80800000Y-122776560D03*
%TO.P,U1,19,5V*%
%TO.N,+5V*%
X80800000Y-125316560D03*
%TO.P,U1,20,SD_CLK/GPIO6*%
%TO.N,unconnected-(U1-SD_CLK{slash}GPIO6-Pad20)*%
X106196320Y-125313840D03*
%TO.P,U1,21,SD_DATA0/GPIO7*%
%TO.N,unconnected-(U1-SD_DATA0{slash}GPIO7-Pad21)*%
X106196320Y-122773840D03*
%TO.P,U1,22,SD_DATA1/GPIO8*%
%TO.N,unconnected-(U1-SD_DATA1{slash}GPIO8-Pad22)*%
X106200000Y-120236560D03*
%TO.P,U1,23,MTDO/GPIO15/ADC2_CH3*%
%TO.N,Net-(U1-MTDO{slash}GPIO15{slash}ADC2_CH3)*%
X106200000Y-117696560D03*
%TO.P,U1,24,ADC2_CH2/GPIO2*%
%TO.N,Net-(U1-ADC2_CH2{slash}GPIO2)*%
X106200000Y-115156560D03*
%TO.P,U1,25,GPIO0/BOOT/ADC2_CH1*%
%TO.N,Net-(U1-GPIO0{slash}BOOT{slash}ADC2_CH1)*%
X106200000Y-112616560D03*
%TO.P,U1,26,ADC2_CH0/GPIO4*%
%TO.N,Net-(U1-ADC2_CH0{slash}GPIO4)*%
X106200000Y-110076560D03*
%TO.P,U1,27,GPIO16*%
%TO.N,Net-(U1-GPIO16)*%
X106200000Y-107536560D03*
%TO.P,U1,28,GPIO17*%
%TO.N,Net-(U1-GPIO17)*%
X106200000Y-104996560D03*
%TO.P,U1,29,GPIO5*%
%TO.N,Net-(U1-GPIO5)*%
X106200000Y-102456560D03*
%TO.P,U1,30,GPIO18*%
%TO.N,Net-(U1-GPIO18)*%
X106200000Y-99916560D03*
%TO.P,U1,31,GPIO19*%
%TO.N,Net-(U1-GPIO19)*%
X106200000Y-97376560D03*
%TO.P,U1,32,GND*%
%TO.N,GND*%
X106200000Y-94836560D03*
%TO.P,U1,33,GPIO21*%
%TO.N,Net-(U1-GPIO21)*%
X106200000Y-92296560D03*
%TO.P,U1,34,U0RXD/GPIO3*%
%TO.N,unconnected-(U1-U0RXD{slash}GPIO3-Pad34)*%
X106200000Y-89756560D03*
%TO.P,U1,35,U0TXD/GPIO1*%
%TO.N,unconnected-(U1-U0TXD{slash}GPIO1-Pad35)*%
X106200000Y-87216560D03*
%TO.P,U1,36,GPIO22*%
%TO.N,Net-(U1-GPIO22)*%
X106200000Y-84676560D03*
%TO.P,U1,37,GPIO23*%
%TO.N,Net-(U1-GPIO23)*%
X106200000Y-82136560D03*
%TO.P,U1,38,GND*%
%TO.N,GND*%
X106200000Y-79596560D03*
%TD*%
D14*
%TO.P,TIMER1,1,Pin_1*%
%TO.N,+3V3*%
X59000000Y-98500000D03*
D15*
%TO.P,TIMER1,2,Pin_2*%
%TO.N,Net-(TIMER1-Pin_2)*%
X61500000Y-98500000D03*
%TD*%
D16*
%TO.P,R13,1*%
%TO.N,+5V*%
X56920000Y-115500000D03*
D17*
%TO.P,R13,2*%
%TO.N,Net-(DAC1-Pin_10)*%
X67080000Y-115500000D03*
%TD*%
D16*
%TO.P,R12,1*%
%TO.N,+5V*%
X56920000Y-111450000D03*
D17*
%TO.P,R12,2*%
%TO.N,Net-(Bosch1-Pin_4)*%
X67080000Y-111450000D03*
%TD*%
D16*
%TO.P,R11,1*%
%TO.N,Net-(Q11-B)*%
X66920000Y-95000000D03*
D17*
%TO.P,R11,2*%
%TO.N,Net-(U1-GPIO23)*%
X77080000Y-95000000D03*
%TD*%
D16*
%TO.P,R10,1*%
%TO.N,Net-(U4-2Y)*%
X135445000Y-79000000D03*
D17*
%TO.P,R10,2*%
%TO.N,Net-(Q10-B)*%
X145605000Y-79000000D03*
%TD*%
D16*
%TO.P,R9,1*%
%TO.N,Net-(U4-1Y)*%
X135445000Y-84444444D03*
D17*
%TO.P,R9,2*%
%TO.N,Net-(Q9-B)*%
X145605000Y-84444444D03*
%TD*%
D16*
%TO.P,R8,1*%
%TO.N,Net-(U3-3Y)*%
X135445000Y-89888888D03*
D17*
%TO.P,R8,2*%
%TO.N,Net-(Q8-B)*%
X145605000Y-89888888D03*
%TD*%
D16*
%TO.P,R7,1*%
%TO.N,Net-(U3-4Y)*%
X135445000Y-95333332D03*
D17*
%TO.P,R7,2*%
%TO.N,Net-(Q7-B)*%
X145605000Y-95333332D03*
%TD*%
D16*
%TO.P,R6,1*%
%TO.N,Net-(U3-2Y)*%
X135445000Y-100777776D03*
D17*
%TO.P,R6,2*%
%TO.N,Net-(Q6-B)*%
X145605000Y-100777776D03*
%TD*%
D16*
%TO.P,R5,1*%
%TO.N,Net-(U3-1Y)*%
X135445000Y-106222220D03*
D17*
%TO.P,R5,2*%
%TO.N,Net-(Q5-B)*%
X145605000Y-106222220D03*
%TD*%
D16*
%TO.P,R4,1*%
%TO.N,Net-(U2-3Y)*%
X135445000Y-111666664D03*
D17*
%TO.P,R4,2*%
%TO.N,Net-(Q4-B)*%
X145605000Y-111666664D03*
%TD*%
D16*
%TO.P,R3,1*%
%TO.N,Net-(U2-4Y)*%
X135445000Y-117111108D03*
D17*
%TO.P,R3,2*%
%TO.N,Net-(Q1-B)*%
X145605000Y-117111108D03*
%TD*%
D16*
%TO.P,R2,1*%
%TO.N,Net-(U2-2Y)*%
X135445000Y-122555552D03*
D17*
%TO.P,R2,2*%
%TO.N,Net-(Q3-B)*%
X145605000Y-122555552D03*
%TD*%
%TO.P,R1,2*%
%TO.N,Net-(Q2-B)*%
X145605000Y-128000000D03*
D16*
%TO.P,R1,1*%
%TO.N,Net-(U2-1Y)*%
X135445000Y-128000000D03*
%TD*%
D18*
%TO.P,Q11,1,E*%
%TO.N,Net-(LAP/MTLED1-Pin_1)*%
X48230000Y-100360000D03*
D19*
%TO.P,Q11,2,B*%
%TO.N,Net-(Q11-B)*%
X49500000Y-100360000D03*
%TO.P,Q11,3,C*%
%TO.N,+5V*%
X50770000Y-100360000D03*
%TD*%
D20*
%TO.P,Q10,1,E*%
%TO.N,Net-(J4-Pin_2)*%
X150525000Y-79500000D03*
D21*
%TO.P,Q10,2,B*%
%TO.N,Net-(Q10-B)*%
X150525000Y-78230000D03*
%TO.P,Q10,3,C*%
%TO.N,+5V*%
X150525000Y-76960000D03*
%TD*%
D20*
%TO.P,Q9,1,E*%
%TO.N,Net-(J4-Pin_3)*%
X150525000Y-85000000D03*
D21*
%TO.P,Q9,2,B*%
%TO.N,Net-(Q9-B)*%
X150525000Y-83730000D03*
%TO.P,Q9,3,C*%
%TO.N,+5V*%
X150525000Y-82460000D03*
%TD*%
D20*
%TO.P,Q8,1,E*%
%TO.N,Net-(J3-Pin_1)*%
X150525000Y-90500000D03*
D21*
%TO.P,Q8,2,B*%
%TO.N,Net-(Q8-B)*%
X150525000Y-89230000D03*
%TO.P,Q8,3,C*%
%TO.N,+5V*%
X150525000Y-87960000D03*
%TD*%
D20*
%TO.P,Q7,1,E*%
%TO.N,Net-(J3-Pin_2)*%
X150525000Y-96000000D03*
D21*
%TO.P,Q7,2,B*%
%TO.N,Net-(Q7-B)*%
X150525000Y-94730000D03*
%TO.P,Q7,3,C*%
%TO.N,+5V*%
X150525000Y-93460000D03*
%TD*%
D20*
%TO.P,Q6,1,E*%
%TO.N,Net-(J3-Pin_3)*%
X150525000Y-101500000D03*
D21*
%TO.P,Q6,2,B*%
%TO.N,Net-(Q6-B)*%
X150525000Y-100230000D03*
%TO.P,Q6,3,C*%
%TO.N,+5V*%
X150525000Y-98960000D03*
%TD*%
D20*
%TO.P,Q5,1,E*%
%TO.N,Net-(J3-Pin_4)*%
X150525000Y-107000000D03*
D21*
%TO.P,Q5,2,B*%
%TO.N,Net-(Q5-B)*%
X150525000Y-105730000D03*
%TO.P,Q5,3,C*%
%TO.N,+5V*%
X150525000Y-104460000D03*
%TD*%
D20*
%TO.P,Q4,1,E*%
%TO.N,Net-(J1-Pin_1)*%
X150525000Y-112770000D03*
D21*
%TO.P,Q4,2,B*%
%TO.N,Net-(Q4-B)*%
X150525000Y-111500000D03*
%TO.P,Q4,3,C*%
%TO.N,+5V*%
X150525000Y-110230000D03*
%TD*%
D20*
%TO.P,Q3,1,E*%
%TO.N,Net-(J1-Pin_3)*%
X150525000Y-124000000D03*
D21*
%TO.P,Q3,2,B*%
%TO.N,Net-(Q3-B)*%
X150525000Y-122730000D03*
%TO.P,Q3,3,C*%
%TO.N,+5V*%
X150525000Y-121460000D03*
%TD*%
D20*
%TO.P,Q2,1,E*%
%TO.N,Net-(J1-Pin_4)*%
X150500000Y-129500000D03*
D21*
%TO.P,Q2,2,B*%
%TO.N,Net-(Q2-B)*%
X150500000Y-128230000D03*
%TO.P,Q2,3,C*%
%TO.N,+5V*%
X150500000Y-126960000D03*
%TD*%
D20*
%TO.P,Q1,1,E*%
%TO.N,Net-(J1-Pin_2)*%
X150525000Y-118500000D03*
D21*
%TO.P,Q1,2,B*%
%TO.N,Net-(Q1-B)*%
X150525000Y-117230000D03*
%TO.P,Q1,3,C*%
%TO.N,+5V*%
X150525000Y-115960000D03*
%TD*%
D14*
%TO.P,PowerConnector1,1,Pin_1*%
%TO.N,+5V*%
X115500000Y-131000000D03*
D15*
%TO.P,PowerConnector1,2,Pin_2*%
%TO.N,GND*%
X118000000Y-131000000D03*
%TD*%
D14*
%TO.P,PIT1,1,Pin_1*%
%TO.N,+3V3*%
X59000000Y-82000000D03*
D15*
%TO.P,PIT1,2,Pin_2*%
%TO.N,Net-(PIT1-Pin_2)*%
X61500000Y-82000000D03*
%TD*%
D14*
%TO.P,LAP/MTLED1,1,Pin_1*%
%TO.N,Net-(LAP/MTLED1-Pin_1)*%
X49000000Y-91000000D03*
D15*
%TO.P,LAP/MTLED1,2,Pin_2*%
%TO.N,GND*%
X51500000Y-91000000D03*
%TD*%
D14*
%TO.P,LAP/MT1,1,Pin_1*%
%TO.N,+3V3*%
X49000000Y-82000000D03*
D15*
%TO.P,LAP/MT1,2,Pin_2*%
%TO.N,Net-(LAP/MT1-Pin_2)*%
X51500000Y-82000000D03*
%TD*%
D22*
%TO.P,J4,1,Pin_1*%
%TO.N,GND*%
X157525000Y-78500000D03*
D23*
%TO.P,J4,2,Pin_2*%
%TO.N,Net-(J4-Pin_2)*%
X157525000Y-81000000D03*
%TO.P,J4,3,Pin_3*%
%TO.N,Net-(J4-Pin_3)*%
X157525000Y-83500000D03*
%TD*%
D22*
%TO.P,J3,1,Pin_1*%
%TO.N,Net-(J3-Pin_1)*%
X157525000Y-98250000D03*
D23*
%TO.P,J3,2,Pin_2*%
%TO.N,Net-(J3-Pin_2)*%
X157525000Y-100750000D03*
%TO.P,J3,3,Pin_3*%
%TO.N,Net-(J3-Pin_3)*%
X157525000Y-103250000D03*
%TO.P,J3,4,Pin_4*%
%TO.N,Net-(J3-Pin_4)*%
X157525000Y-105750000D03*
%TD*%
D22*
%TO.P,J1,1,Pin_1*%
%TO.N,Net-(J1-Pin_1)*%
X157525000Y-120500000D03*
D23*
%TO.P,J1,2,Pin_2*%
%TO.N,Net-(J1-Pin_2)*%
X157525000Y-123000000D03*
%TO.P,J1,3,Pin_3*%
%TO.N,Net-(J1-Pin_3)*%
X157525000Y-125500000D03*
%TO.P,J1,4,Pin_4*%
%TO.N,Net-(J1-Pin_4)*%
X157525000Y-128000000D03*
%TD*%
D14*
%TO.P,GPS1,1,Pin_1*%
%TO.N,Net-(GPS1-Pin_1)*%
X69000000Y-82000000D03*
D15*
%TO.P,GPS1,2,Pin_2*%
%TO.N,Net-(GPS1-Pin_2)*%
X71500000Y-82000000D03*
%TD*%
D24*
%TO.P,Fuel1,1,Pin_1*%
%TO.N,Net-(DAC1-Pin_10)*%
X49000000Y-111000000D03*
D25*
%TO.P,Fuel1,2,Pin_2*%
%TO.N,GND*%
X49000000Y-108500000D03*
%TD*%
D14*
%TO.P,FCK1,1,Pin_1*%
%TO.N,+3V3*%
X59000000Y-91000000D03*
D15*
%TO.P,FCK1,2,Pin_2*%
%TO.N,Net-(FCK1-Pin_2)*%
X61500000Y-91000000D03*
%TD*%
D26*
%TO.P,Bosch1,1,Pin_1*%
%TO.N,+5V*%
X49000000Y-127000000D03*
D23*
%TO.P,Bosch1,2,Pin_2*%
%TO.N,GND*%
X49000000Y-124500000D03*
%TO.P,Bosch1,3,Pin_3*%
%TO.N,Net-(Bosch1-Pin_3)*%
X49000000Y-122000000D03*
%TO.P,Bosch1,4,Pin_4*%
%TO.N,Net-(Bosch1-Pin_4)*%
X49000000Y-119500000D03*
%TD*%
D10*
%TO.P,U3,1,1A*%
%TO.N,Net-(U1-GPIO16)*%
X114800000Y-106560000D03*
D11*
%TO.P,U3,2,1B*%
%TO.N,Net-(U1-GPIO22)*%
X117340000Y-106560000D03*
%TO.P,U3,3,1Y*%
%TO.N,Net-(U3-1Y)*%
X119880000Y-106560000D03*
%TO.P,U3,4,2A*%
%TO.N,Net-(U1-GPIO17)*%
X122420000Y-106560000D03*
%TO.P,U3,5,2B*%
%TO.N,Net-(U1-GPIO22)*%
X124960000Y-106560000D03*
%TO.P,U3,6,2Y*%
%TO.N,Net-(U3-2Y)*%
X127500000Y-106560000D03*
%TO.P,U3,7,GND*%
%TO.N,GND*%
X130040000Y-106560000D03*
%TO.P,U3,8,3Y*%
%TO.N,Net-(U3-3Y)*%
X130040000Y-98940000D03*
%TO.P,U3,9,3A*%
%TO.N,Net-(U1-GPIO18)*%
X127500000Y-98940000D03*
%TO.P,U3,10,3B*%
%TO.N,Net-(U1-GPIO22)*%
X124960000Y-98940000D03*
%TO.P,U3,11,4Y*%
%TO.N,Net-(U3-4Y)*%
X122420000Y-98940000D03*
%TO.P,U3,12,4A*%
%TO.N,Net-(U1-GPIO5)*%
X119880000Y-98940000D03*
%TO.P,U3,13,4B*%
%TO.N,Net-(U1-GPIO22)*%
X117340000Y-98940000D03*
%TO.P,U3,14,VCC*%
%TO.N,+5V*%
X114800000Y-98940000D03*
%TD*%
D27*
%TO.P,DAC1,1,Pin_1*%
%TO.N,+5V*%
X73000000Y-128120000D03*
D28*
%TO.P,DAC1,2,Pin_2*%
%TO.N,GND*%
X73000000Y-125580000D03*
%TO.P,DAC1,3,Pin_3*%
%TO.N,Net-(DAC1-Pin_3)*%
X73000000Y-123040000D03*
%TO.P,DAC1,4,Pin_4*%
%TO.N,Net-(DAC1-Pin_4)*%
X73000000Y-120500000D03*
%TO.P,DAC1,5,Pin_5*%
%TO.N,GND*%
X73000000Y-117960000D03*
%TO.P,DAC1,6,Pin_6*%
%TO.N,unconnected-(DAC1-Pin_6-Pad6)*%
X73000000Y-115420000D03*
%TO.P,DAC1,7,Pin_7*%
%TO.N,Net-(Bosch1-Pin_3)*%
X73000000Y-112880000D03*
%TO.P,DAC1,8,Pin_8*%
%TO.N,Net-(Bosch1-Pin_4)*%
X73000000Y-110340000D03*
%TO.P,DAC1,9,Pin_9*%
%TO.N,+5V*%
X73000000Y-107800000D03*
%TO.P,DAC1,10,Pin_10*%
%TO.N,Net-(DAC1-Pin_10)*%
X73000000Y-105260000D03*
%TD*%
D29*
%TO.N,Net-(FCK1-Pin_2)*%
X80800000Y-107136560D02*
X80800000Y-107536560D01*
X64663440Y-91000000D02*
X80800000Y-107136560D01*
X61500000Y-91000000D02*
X64663440Y-91000000D01*
%TO.N,Net-(LAP/MT1-Pin_2)*%
X65500000Y-88500000D02*
X65500000Y-89696560D01*
X65500000Y-89696560D02*
X80800000Y-104996560D01*
X58000000Y-88500000D02*
X65500000Y-88500000D01*
X51500000Y-82000000D02*
X58000000Y-88500000D01*
%TO.N,Net-(GPS1-Pin_1)*%
X69000000Y-90656560D02*
X80800000Y-102456560D01*
%TO.N,Net-(GPS1-Pin_2)*%
X71500000Y-82000000D02*
X71500000Y-90975635D01*
X71500000Y-90975635D02*
X80440925Y-99916560D01*
X80440925Y-99916560D02*
X80800000Y-99916560D01*
%TO.N,Net-(U1-GPIO23)*%
X106972792Y-78696560D02*
X107500000Y-79223768D01*
X107500000Y-79223768D02*
X107500000Y-80836560D01*
X90927208Y-93196560D02*
X105427208Y-78696560D01*
X107500000Y-80836560D02*
X106200000Y-82136560D01*
X78883440Y-93196560D02*
X90927208Y-93196560D01*
X77080000Y-95000000D02*
X78883440Y-93196560D01*
X105427208Y-78696560D02*
X106972792Y-78696560D01*
%TO.N,Net-(Q11-B)*%
X54635000Y-95000000D02*
X66920000Y-95000000D01*
X49500000Y-100135000D02*
X54635000Y-95000000D01*
X49500000Y-100360000D02*
X49500000Y-100135000D01*
%TO.N,Net-(TIMER1-Pin_2)*%
X79500000Y-113856560D02*
X80800000Y-115156560D01*
X79500000Y-110133654D02*
X79500000Y-113856560D01*
X67866346Y-98500000D02*
X79500000Y-110133654D01*
X61500000Y-98500000D02*
X67866346Y-98500000D01*
%TO.N,GND*%
X104900000Y-93536560D02*
X106200000Y-94836560D01*
X104900000Y-80896560D02*
X104900000Y-93536560D01*
X106200000Y-79596560D02*
X104900000Y-80896560D01*
X98580000Y-94836560D02*
X80800000Y-112616560D01*
X106200000Y-94836560D02*
X98580000Y-94836560D01*
X70000000Y-120960000D02*
X70000000Y-124500000D01*
X73000000Y-117960000D02*
X70000000Y-120960000D01*
X70000000Y-124500000D02*
X71920000Y-124500000D01*
X49000000Y-124500000D02*
X70000000Y-124500000D01*
X71920000Y-124500000D02*
X73000000Y-125580000D01*
%TO.N,Net-(Bosch1-Pin_3)*%
X63880000Y-122000000D02*
X73000000Y-112880000D01*
X49000000Y-122000000D02*
X63880000Y-122000000D01*
%TO.N,Net-(DAC1-Pin_10)*%
X74500000Y-106760000D02*
X73000000Y-105260000D01*
X73476346Y-111490000D02*
X74500000Y-110466346D01*
X69960000Y-114053654D02*
X72523654Y-111490000D01*
X72523654Y-111490000D02*
X73476346Y-111490000D01*
X67080000Y-114053654D02*
X69960000Y-114053654D01*
X74500000Y-110466346D02*
X74500000Y-106760000D01*
%TO.N,Net-(Bosch1-Pin_4)*%
X71890000Y-111450000D02*
X73000000Y-110340000D01*
X67080000Y-111450000D02*
X71890000Y-111450000D01*
%TO.N,Net-(DAC1-Pin_10)*%
X71397183Y-103657183D02*
X63157183Y-103657183D01*
X73000000Y-105260000D02*
X71397183Y-103657183D01*
X63157183Y-103657183D02*
X55814365Y-111000000D01*
%TO.N,GND*%
X82100000Y-115900000D02*
X82100000Y-113916560D01*
X81500000Y-116500000D02*
X82100000Y-115900000D01*
X73000000Y-117960000D02*
X74460000Y-116500000D01*
X74460000Y-116500000D02*
X81500000Y-116500000D01*
X82100000Y-113916560D02*
X80800000Y-112616560D01*
%TO.N,Net-(DAC1-Pin_10)*%
X67080000Y-114053654D02*
X67080000Y-115500000D01*
X55814365Y-111000000D02*
X49000000Y-111000000D01*
%TO.N,Net-(Q11-B)*%
X49500000Y-100360000D02*
X49500000Y-100585000D01*
%TO.N,Net-(LAP/MTLED1-Pin_1)*%
X48230000Y-91770000D02*
X48230000Y-100360000D01*
X49000000Y-91000000D02*
X48230000Y-91770000D01*
%TO.N,+5V*%
X144000000Y-121000000D02*
X144000000Y-123000000D01*
X147960000Y-126960000D02*
X150385000Y-126960000D01*
X150065000Y-121000000D02*
X144000000Y-121000000D01*
X144000000Y-123000000D02*
X147960000Y-126960000D01*
X150525000Y-121460000D02*
X150065000Y-121000000D01*
X147500000Y-115500000D02*
X147960000Y-115960000D01*
X145000000Y-115500000D02*
X147500000Y-115500000D01*
X146960000Y-104460000D02*
X150525000Y-104460000D01*
X144000000Y-100000000D02*
X144000000Y-101500000D01*
X145040000Y-98960000D02*
X144000000Y-100000000D01*
X150525000Y-98960000D02*
X145040000Y-98960000D01*
X144000000Y-101500000D02*
X146960000Y-104460000D01*
X146960000Y-93460000D02*
X150525000Y-93460000D01*
X144000000Y-90500000D02*
X146960000Y-93460000D01*
X144000000Y-89000000D02*
X144000000Y-90500000D01*
X150525000Y-87960000D02*
X145040000Y-87960000D01*
X145040000Y-87960000D02*
X144000000Y-89000000D01*
X147960000Y-115960000D02*
X150525000Y-115960000D01*
X144000000Y-111054008D02*
X144000000Y-112000000D01*
X144824008Y-110230000D02*
X144000000Y-111054008D01*
X150525000Y-110230000D02*
X144824008Y-110230000D01*
X144000000Y-112000000D02*
X147960000Y-115960000D01*
X147960000Y-121460000D02*
X150525000Y-121460000D01*
X144000000Y-117500000D02*
X147960000Y-121460000D01*
X145000000Y-115500000D02*
X144000000Y-116500000D01*
X144000000Y-116500000D02*
X144000000Y-117500000D01*
%TO.N,Net-(U3-1Y)*%
X133667220Y-108000000D02*
X135445000Y-106222220D01*
X119880000Y-106560000D02*
X121320000Y-108000000D01*
X121320000Y-108000000D02*
X133667220Y-108000000D01*
%TO.N,+5V*%
X144000000Y-106586428D02*
X147643572Y-110230000D01*
X144000000Y-105500000D02*
X144000000Y-106586428D01*
X145040000Y-104460000D02*
X144000000Y-105500000D01*
X147643572Y-110230000D02*
X150525000Y-110230000D01*
X150525000Y-104460000D02*
X145040000Y-104460000D01*
X144000000Y-95191349D02*
X144000000Y-96000000D01*
X146960000Y-98960000D02*
X150525000Y-98960000D01*
X145731349Y-93460000D02*
X144000000Y-95191349D01*
X144000000Y-96000000D02*
X146960000Y-98960000D01*
X150525000Y-93460000D02*
X145731349Y-93460000D01*
X144000000Y-85000000D02*
X146960000Y-87960000D01*
X144000000Y-84000000D02*
X144000000Y-85000000D01*
X145540000Y-82460000D02*
X144000000Y-84000000D01*
X150525000Y-82460000D02*
X145540000Y-82460000D01*
X146960000Y-87960000D02*
X150525000Y-87960000D01*
X144000000Y-79500000D02*
X144000000Y-78000000D01*
X144000000Y-78000000D02*
X144500000Y-77500000D01*
X150525000Y-82460000D02*
X146960000Y-82460000D01*
X146960000Y-82460000D02*
X144000000Y-79500000D01*
X145040000Y-76960000D02*
X150525000Y-76960000D01*
X144500000Y-77500000D02*
X145040000Y-76960000D01*
X144000000Y-77000000D02*
X144500000Y-77500000D01*
X114800000Y-81380000D02*
X119180000Y-77000000D01*
X119180000Y-77000000D02*
X144000000Y-77000000D01*
%TO.N,Net-(U1-GPIO21)*%
X120920000Y-90500000D02*
X122420000Y-89000000D01*
X117824851Y-87500000D02*
X118500000Y-88175149D01*
X114500000Y-87500000D02*
X117824851Y-87500000D01*
X119500000Y-90500000D02*
X120920000Y-90500000D01*
X109703440Y-92296560D02*
X114500000Y-87500000D01*
X106200000Y-92296560D02*
X109703440Y-92296560D01*
X118500000Y-88175149D02*
X118500000Y-89500000D01*
X118500000Y-89500000D02*
X119500000Y-90500000D01*
%TO.N,Net-(U2-1Y)*%
X127000000Y-128000000D02*
X135445000Y-128000000D01*
X123500000Y-123487700D02*
X123500000Y-124500000D01*
X123500000Y-124500000D02*
X127000000Y-128000000D01*
X123184600Y-123172300D02*
X123500000Y-123487700D01*
X119880000Y-124120000D02*
X120827700Y-123172300D01*
X120827700Y-123172300D02*
X123184600Y-123172300D01*
%TO.N,Net-(U1-ADC2_CH2{slash}GPIO2)*%
X116000000Y-124500000D02*
X116000000Y-123424600D01*
X121040000Y-125500000D02*
X117000000Y-125500000D01*
X116000000Y-123424600D02*
X107731960Y-115156560D01*
X107731960Y-115156560D02*
X106200000Y-115156560D01*
X122420000Y-124120000D02*
X121040000Y-125500000D01*
X117000000Y-125500000D02*
X116000000Y-124500000D01*
%TO.N,GND*%
X51500000Y-90000000D02*
X51500000Y-91000000D01*
X48000000Y-89000000D02*
X50500000Y-89000000D01*
X47000000Y-90000000D02*
X48000000Y-89000000D01*
X47000000Y-106500000D02*
X47000000Y-90000000D01*
X50500000Y-89000000D02*
X51500000Y-90000000D01*
X49000000Y-108500000D02*
X47000000Y-106500000D01*
X47500000Y-123000000D02*
X47500000Y-110000000D01*
X49000000Y-124500000D02*
X47500000Y-123000000D01*
X47500000Y-110000000D02*
X49000000Y-108500000D01*
%TO.N,Net-(GPS1-Pin_1)*%
X69000000Y-82000000D02*
X69000000Y-90656560D01*
%TO.N,Net-(Bosch1-Pin_4)*%
X59030000Y-119500000D02*
X67080000Y-111450000D01*
X49000000Y-119500000D02*
X59030000Y-119500000D01*
%TO.N,Net-(U2-2Y)*%
X129064448Y-122555552D02*
X127500000Y-124120000D01*
X135445000Y-122555552D02*
X129064448Y-122555552D01*
%TO.N,Net-(U1-MTDO{slash}GPIO15{slash}ADC2_CH3)*%
X114800000Y-124120000D02*
X112623440Y-124120000D01*
X112623440Y-124120000D02*
X106200000Y-117696560D01*
%TO.N,Net-(U1-GPIO0{slash}BOOT{slash}ADC2_CH1)*%
X115996560Y-112616560D02*
X106200000Y-112616560D01*
X119880000Y-116500000D02*
X115996560Y-112616560D01*
%TO.N,Net-(U1-ADC2_CH0{slash}GPIO4)*%
X121076560Y-110076560D02*
X106200000Y-110076560D01*
X127500000Y-116500000D02*
X121076560Y-110076560D01*
%TO.N,Net-(U2-4Y)*%
X134645001Y-117911107D02*
X123831107Y-117911107D01*
X123831107Y-117911107D02*
X122420000Y-116500000D01*
X135445000Y-117111108D02*
X134645001Y-117911107D01*
%TO.N,Net-(U2-3Y)*%
X134873336Y-111666664D02*
X135445000Y-111666664D01*
X130040000Y-116500000D02*
X134873336Y-111666664D01*
%TO.N,Net-(U3-2Y)*%
X133282224Y-100777776D02*
X135445000Y-100777776D01*
X127500000Y-106560000D02*
X133282224Y-100777776D01*
%TO.N,Net-(U1-GPIO17)*%
X120856560Y-104996560D02*
X106200000Y-104996560D01*
X122420000Y-106560000D02*
X120856560Y-104996560D01*
%TO.N,Net-(U1-GPIO16)*%
X107176560Y-106560000D02*
X106200000Y-107536560D01*
X114800000Y-106560000D02*
X107176560Y-106560000D01*
%TO.N,Net-(U1-GPIO18)*%
X108124260Y-97992300D02*
X106200000Y-99916560D01*
X121472300Y-99192049D02*
X120272551Y-97992300D01*
X122027449Y-99887700D02*
X121472300Y-99332551D01*
X121472300Y-99332551D02*
X121472300Y-99192049D01*
X126552300Y-99887700D02*
X122027449Y-99887700D01*
X127500000Y-98940000D02*
X126552300Y-99887700D01*
X120272551Y-97992300D02*
X108124260Y-97992300D01*
%TO.N,Net-(U1-GPIO5)*%
X116363440Y-102456560D02*
X106200000Y-102456560D01*
X119880000Y-98940000D02*
X116363440Y-102456560D01*
%TO.N,Net-(U3-3Y)*%
X136545000Y-95788967D02*
X136545000Y-90988888D01*
X133393967Y-98940000D02*
X136545000Y-95788967D01*
X130040000Y-98940000D02*
X133393967Y-98940000D01*
X136545000Y-90988888D02*
X135445000Y-89888888D01*
%TO.N,Net-(U3-4Y)*%
X126026668Y-95333332D02*
X135445000Y-95333332D01*
X122420000Y-98940000D02*
X126026668Y-95333332D01*
%TO.N,Net-(J3-Pin_1)*%
X150525000Y-91250000D02*
X150525000Y-90500000D01*
X157525000Y-98250000D02*
X150525000Y-91250000D01*
%TO.N,Net-(J3-Pin_2)*%
X151000000Y-96000000D02*
X155750000Y-100750000D01*
X155750000Y-100750000D02*
X157525000Y-100750000D01*
X150525000Y-96000000D02*
X151000000Y-96000000D01*
%TO.N,Net-(J3-Pin_3)*%
X152275000Y-103250000D02*
X150525000Y-101500000D01*
X157525000Y-103250000D02*
X152275000Y-103250000D01*
%TO.N,Net-(J3-Pin_4)*%
X150525000Y-107000000D02*
X156275000Y-107000000D01*
X156275000Y-107000000D02*
X157525000Y-105750000D01*
%TO.N,Net-(J1-Pin_1)*%
X150525000Y-113500000D02*
X150525000Y-112770000D01*
X157525000Y-120500000D02*
X150525000Y-113500000D01*
%TO.N,Net-(J1-Pin_2)*%
X155025000Y-123000000D02*
X150525000Y-118500000D01*
X157525000Y-123000000D02*
X155025000Y-123000000D01*
%TO.N,Net-(J1-Pin_3)*%
X152025000Y-125500000D02*
X150525000Y-124000000D01*
X157525000Y-125500000D02*
X152025000Y-125500000D01*
%TO.N,Net-(J1-Pin_4)*%
X156025000Y-129500000D02*
X157525000Y-128000000D01*
X150385000Y-129500000D02*
X156025000Y-129500000D01*
%TO.N,Net-(Q2-B)*%
X150155000Y-128000000D02*
X150385000Y-128230000D01*
X145605000Y-128000000D02*
X150155000Y-128000000D01*
%TO.N,Net-(Q3-B)*%
X150350552Y-122555552D02*
X150525000Y-122730000D01*
X145605000Y-122555552D02*
X150350552Y-122555552D01*
%TO.N,Net-(Q1-B)*%
X150406108Y-117111108D02*
X150525000Y-117230000D01*
X145605000Y-117111108D02*
X150406108Y-117111108D01*
%TO.N,Net-(Q4-B)*%
X150358336Y-111666664D02*
X150525000Y-111500000D01*
X145605000Y-111666664D02*
X150358336Y-111666664D01*
%TO.N,Net-(Q5-B)*%
X146097220Y-105730000D02*
X150525000Y-105730000D01*
X145605000Y-106222220D02*
X146097220Y-105730000D01*
%TO.N,Net-(Q6-B)*%
X146152776Y-100230000D02*
X150525000Y-100230000D01*
X145605000Y-100777776D02*
X146152776Y-100230000D01*
%TO.N,Net-(Q7-B)*%
X146208332Y-94730000D02*
X150525000Y-94730000D01*
X145605000Y-95333332D02*
X146208332Y-94730000D01*
%TO.N,Net-(Q8-B)*%
X146263888Y-89230000D02*
X150525000Y-89230000D01*
X145605000Y-89888888D02*
X146263888Y-89230000D01*
%TO.N,Net-(J4-Pin_2)*%
X156025000Y-79500000D02*
X157525000Y-81000000D01*
X150525000Y-79500000D02*
X156025000Y-79500000D01*
%TO.N,Net-(J4-Pin_3)*%
X156025000Y-85000000D02*
X157525000Y-83500000D01*
X150525000Y-85000000D02*
X156025000Y-85000000D01*
%TO.N,Net-(Q9-B)*%
X146319444Y-83730000D02*
X150525000Y-83730000D01*
X145605000Y-84444444D02*
X146319444Y-83730000D01*
%TO.N,Net-(Q10-B)*%
X145605000Y-79000000D02*
X146375000Y-78230000D01*
X146375000Y-78230000D02*
X150525000Y-78230000D01*
%TO.N,Net-(U4-2Y)*%
X136545000Y-80100000D02*
X135445000Y-79000000D01*
X136545000Y-84955000D02*
X136545000Y-80100000D01*
X128447700Y-88052300D02*
X133447700Y-88052300D01*
X133447700Y-88052300D02*
X136545000Y-84955000D01*
X127500000Y-89000000D02*
X128447700Y-88052300D01*
%TO.N,Net-(U4-1Y)*%
X124435556Y-84444444D02*
X135445000Y-84444444D01*
X119880000Y-89000000D02*
X124435556Y-84444444D01*
%TO.N,Net-(U1-GPIO22)*%
X117340000Y-89000000D02*
X117500000Y-89000000D01*
%TO.N,Net-(U1-GPIO19)*%
X114576560Y-89000000D02*
X106200000Y-97376560D01*
X114800000Y-89000000D02*
X114576560Y-89000000D01*
%TD*%
M02*
