%TF.GenerationSoftware,KiCad,Pcbnew,8.0.4*%
%TF.CreationDate,2024-09-13T19:46:17+02:00*%
%TF.ProjectId,smurf-box,736d7572-662d-4626-9f78-2e6b69636164,rev?*%
%TF.SameCoordinates,Original*%
%TF.FileFunction,Soldermask,Top*%
%TF.FilePolarity,Negative*%
%FSLAX46Y46*%
G04 Gerber Fmt 4.6, Leading zero omitted, Abs format (unit mm)*
G04 Created by KiCad (PCBNEW 8.0.4) date 2024-09-13 19:46:17*
%MOMM*%
%LPD*%
G01*
G04 APERTURE LIST*
G04 Aperture macros list*
%AMRoundRect*
0 Rectangle with rounded corners*
0 $1 Rounding radius*
0 $2 $3 $4 $5 $6 $7 $8 $9 X,Y pos of 4 corners*
0 Add a 4 corners polygon primitive as box body*
4,1,4,$2,$3,$4,$5,$6,$7,$8,$9,$2,$3,0*
0 Add four circle primitives for the rounded corners*
1,1,$1+$1,$2,$3*
1,1,$1+$1,$4,$5*
1,1,$1+$1,$6,$7*
1,1,$1+$1,$8,$9*
0 Add four rect primitives between the rounded corners*
20,1,$1+$1,$2,$3,$4,$5,0*
20,1,$1+$1,$4,$5,$6,$7,0*
20,1,$1+$1,$6,$7,$8,$9,0*
20,1,$1+$1,$8,$9,$2,$3,0*%
G04 Aperture macros list end*
%ADD10R,1.295400X1.295400*%
%ADD11C,1.295400*%
%ADD12R,2.000000X1.200000*%
%ADD13O,2.000000X1.200000*%
%ADD14RoundRect,0.250000X-0.600000X-0.750000X0.600000X-0.750000X0.600000X0.750000X-0.600000X0.750000X0*%
%ADD15O,1.700000X2.000000*%
%ADD16C,1.600000*%
%ADD17O,1.600000X1.600000*%
%ADD18R,1.050000X1.500000*%
%ADD19O,1.050000X1.500000*%
%ADD20R,1.500000X1.050000*%
%ADD21O,1.500000X1.050000*%
%ADD22RoundRect,0.250000X-0.725000X0.600000X-0.725000X-0.600000X0.725000X-0.600000X0.725000X0.600000X0*%
%ADD23O,1.950000X1.700000*%
%ADD24RoundRect,0.250000X0.750000X-0.600000X0.750000X0.600000X-0.750000X0.600000X-0.750000X-0.600000X0*%
%ADD25O,2.000000X1.700000*%
%ADD26RoundRect,0.250000X0.725000X-0.600000X0.725000X0.600000X-0.725000X0.600000X-0.725000X-0.600000X0*%
%ADD27R,1.700000X1.700000*%
%ADD28O,1.700000X1.700000*%
G04 APERTURE END LIST*
D10*
%TO.C,U4*%
X114800000Y-89000000D03*
D11*
X117340000Y-89000000D03*
X119880000Y-89000000D03*
X122420000Y-89000000D03*
X124960000Y-89000000D03*
X127500000Y-89000000D03*
X130040000Y-89000000D03*
X130040000Y-81380000D03*
X127500000Y-81380000D03*
X124960000Y-81380000D03*
X122420000Y-81380000D03*
X119880000Y-81380000D03*
X117340000Y-81380000D03*
X114800000Y-81380000D03*
%TD*%
D10*
%TO.C,U2*%
X114800000Y-124120000D03*
D11*
X117340000Y-124120000D03*
X119880000Y-124120000D03*
X122420000Y-124120000D03*
X124960000Y-124120000D03*
X127500000Y-124120000D03*
X130040000Y-124120000D03*
X130040000Y-116500000D03*
X127500000Y-116500000D03*
X124960000Y-116500000D03*
X122420000Y-116500000D03*
X119880000Y-116500000D03*
X117340000Y-116500000D03*
X114800000Y-116500000D03*
%TD*%
D12*
%TO.C,U1*%
X80800000Y-79596560D03*
D13*
X80800000Y-82136560D03*
X80800000Y-84676560D03*
X80800000Y-87216560D03*
X80800000Y-89756560D03*
X80800000Y-92296560D03*
X80800000Y-94836560D03*
X80800000Y-97376560D03*
X80800000Y-99916560D03*
X80800000Y-102456560D03*
X80800000Y-104996560D03*
X80800000Y-107536560D03*
X80800000Y-110076560D03*
X80800000Y-112616560D03*
X80800000Y-115156560D03*
X80800000Y-117696560D03*
X80800000Y-120236560D03*
X80800000Y-122776560D03*
X80800000Y-125316560D03*
X106196320Y-125313840D03*
X106196320Y-122773840D03*
X106200000Y-120236560D03*
X106200000Y-117696560D03*
X106200000Y-115156560D03*
X106200000Y-112616560D03*
X106200000Y-110076560D03*
X106200000Y-107536560D03*
X106200000Y-104996560D03*
X106200000Y-102456560D03*
X106200000Y-99916560D03*
X106200000Y-97376560D03*
X106200000Y-94836560D03*
X106200000Y-92296560D03*
X106200000Y-89756560D03*
X106200000Y-87216560D03*
X106200000Y-84676560D03*
X106200000Y-82136560D03*
X106200000Y-79596560D03*
%TD*%
D14*
%TO.C,TIMER1*%
X59000000Y-98500000D03*
D15*
X61500000Y-98500000D03*
%TD*%
D16*
%TO.C,R13*%
X56920000Y-115500000D03*
D17*
X67080000Y-115500000D03*
%TD*%
D16*
%TO.C,R12*%
X56920000Y-111450000D03*
D17*
X67080000Y-111450000D03*
%TD*%
D16*
%TO.C,R11*%
X66920000Y-95000000D03*
D17*
X77080000Y-95000000D03*
%TD*%
D16*
%TO.C,R10*%
X135445000Y-79000000D03*
D17*
X145605000Y-79000000D03*
%TD*%
D16*
%TO.C,R9*%
X135445000Y-84444444D03*
D17*
X145605000Y-84444444D03*
%TD*%
D16*
%TO.C,R8*%
X135445000Y-89888888D03*
D17*
X145605000Y-89888888D03*
%TD*%
D16*
%TO.C,R7*%
X135445000Y-95333332D03*
D17*
X145605000Y-95333332D03*
%TD*%
D16*
%TO.C,R6*%
X135445000Y-100777776D03*
D17*
X145605000Y-100777776D03*
%TD*%
D16*
%TO.C,R5*%
X135445000Y-106222220D03*
D17*
X145605000Y-106222220D03*
%TD*%
D16*
%TO.C,R4*%
X135445000Y-111666664D03*
D17*
X145605000Y-111666664D03*
%TD*%
D16*
%TO.C,R3*%
X135445000Y-117111108D03*
D17*
X145605000Y-117111108D03*
%TD*%
D16*
%TO.C,R2*%
X135445000Y-122555552D03*
D17*
X145605000Y-122555552D03*
%TD*%
%TO.C,R1*%
X145605000Y-128000000D03*
D16*
X135445000Y-128000000D03*
%TD*%
D18*
%TO.C,Q11*%
X48230000Y-100360000D03*
D19*
X49500000Y-100360000D03*
X50770000Y-100360000D03*
%TD*%
D20*
%TO.C,Q10*%
X150525000Y-79500000D03*
D21*
X150525000Y-78230000D03*
X150525000Y-76960000D03*
%TD*%
D20*
%TO.C,Q9*%
X150525000Y-85000000D03*
D21*
X150525000Y-83730000D03*
X150525000Y-82460000D03*
%TD*%
D20*
%TO.C,Q8*%
X150525000Y-90500000D03*
D21*
X150525000Y-89230000D03*
X150525000Y-87960000D03*
%TD*%
D20*
%TO.C,Q7*%
X150525000Y-96000000D03*
D21*
X150525000Y-94730000D03*
X150525000Y-93460000D03*
%TD*%
D20*
%TO.C,Q6*%
X150525000Y-101500000D03*
D21*
X150525000Y-100230000D03*
X150525000Y-98960000D03*
%TD*%
D20*
%TO.C,Q5*%
X150525000Y-107000000D03*
D21*
X150525000Y-105730000D03*
X150525000Y-104460000D03*
%TD*%
D20*
%TO.C,Q4*%
X150525000Y-112770000D03*
D21*
X150525000Y-111500000D03*
X150525000Y-110230000D03*
%TD*%
D20*
%TO.C,Q3*%
X150525000Y-124000000D03*
D21*
X150525000Y-122730000D03*
X150525000Y-121460000D03*
%TD*%
D20*
%TO.C,Q2*%
X150500000Y-129500000D03*
D21*
X150500000Y-128230000D03*
X150500000Y-126960000D03*
%TD*%
D20*
%TO.C,Q1*%
X150525000Y-118500000D03*
D21*
X150525000Y-117230000D03*
X150525000Y-115960000D03*
%TD*%
D14*
%TO.C,PowerConnector1*%
X115500000Y-131000000D03*
D15*
X118000000Y-131000000D03*
%TD*%
D14*
%TO.C,PIT1*%
X59000000Y-82000000D03*
D15*
X61500000Y-82000000D03*
%TD*%
D14*
%TO.C,LAP/MTLED1*%
X49000000Y-91000000D03*
D15*
X51500000Y-91000000D03*
%TD*%
D14*
%TO.C,LAP/MT1*%
X49000000Y-82000000D03*
D15*
X51500000Y-82000000D03*
%TD*%
D22*
%TO.C,J4*%
X157525000Y-78500000D03*
D23*
X157525000Y-81000000D03*
X157525000Y-83500000D03*
%TD*%
D22*
%TO.C,J3*%
X157525000Y-98250000D03*
D23*
X157525000Y-100750000D03*
X157525000Y-103250000D03*
X157525000Y-105750000D03*
%TD*%
D22*
%TO.C,J1*%
X157525000Y-120500000D03*
D23*
X157525000Y-123000000D03*
X157525000Y-125500000D03*
X157525000Y-128000000D03*
%TD*%
D14*
%TO.C,GPS1*%
X69000000Y-82000000D03*
D15*
X71500000Y-82000000D03*
%TD*%
D24*
%TO.C,Fuel1*%
X49000000Y-111000000D03*
D25*
X49000000Y-108500000D03*
%TD*%
D14*
%TO.C,FCK1*%
X59000000Y-91000000D03*
D15*
X61500000Y-91000000D03*
%TD*%
D26*
%TO.C,Bosch1*%
X49000000Y-127000000D03*
D23*
X49000000Y-124500000D03*
X49000000Y-122000000D03*
X49000000Y-119500000D03*
%TD*%
D10*
%TO.C,U3*%
X114800000Y-106560000D03*
D11*
X117340000Y-106560000D03*
X119880000Y-106560000D03*
X122420000Y-106560000D03*
X124960000Y-106560000D03*
X127500000Y-106560000D03*
X130040000Y-106560000D03*
X130040000Y-98940000D03*
X127500000Y-98940000D03*
X124960000Y-98940000D03*
X122420000Y-98940000D03*
X119880000Y-98940000D03*
X117340000Y-98940000D03*
X114800000Y-98940000D03*
%TD*%
D27*
%TO.C,DAC1*%
X73000000Y-128120000D03*
D28*
X73000000Y-125580000D03*
X73000000Y-123040000D03*
X73000000Y-120500000D03*
X73000000Y-117960000D03*
X73000000Y-115420000D03*
X73000000Y-112880000D03*
X73000000Y-110340000D03*
X73000000Y-107800000D03*
X73000000Y-105260000D03*
%TD*%
M02*
