M48
; DRILL file {KiCad 8.0.4} date 2024-09-13T19:47:26+0200
; FORMAT={-:-/ absolute / metric / decimal}
; #@! TF.CreationDate,2024-09-13T19:47:26+02:00
; #@! TF.GenerationSoftware,Kicad,Pcbnew,8.0.4
; #@! TF.FileFunction,Plated,1,2,PTH
FMAT,2
METRIC
; #@! TA.AperFunction,Plated,PTH,ComponentDrill
T1C0.750
; #@! TA.AperFunction,Plated,PTH,ComponentDrill
T2C0.787
; #@! TA.AperFunction,Plated,PTH,ComponentDrill
T3C0.800
; #@! TA.AperFunction,Plated,PTH,ComponentDrill
T4C0.950
; #@! TA.AperFunction,Plated,PTH,ComponentDrill
T5C1.000
%
G90
G05
T1
X48.23Y-100.36
X49.5Y-100.36
X50.77Y-100.36
X150.5Y-126.96
X150.5Y-128.23
X150.5Y-129.5
X150.525Y-76.96
X150.525Y-78.23
X150.525Y-79.5
X150.525Y-82.46
X150.525Y-83.73
X150.525Y-85.0
X150.525Y-87.96
X150.525Y-89.23
X150.525Y-90.5
X150.525Y-93.46
X150.525Y-94.73
X150.525Y-96.0
X150.525Y-98.96
X150.525Y-100.23
X150.525Y-101.5
X150.525Y-104.46
X150.525Y-105.73
X150.525Y-107.0
X150.525Y-110.23
X150.525Y-111.5
X150.525Y-112.77
X150.525Y-115.96
X150.525Y-117.23
X150.525Y-118.5
X150.525Y-121.46
X150.525Y-122.73
X150.525Y-124.0
T2
X114.8Y-81.38
X114.8Y-89.0
X114.8Y-98.94
X114.8Y-106.56
X114.8Y-116.5
X114.8Y-124.12
X117.34Y-81.38
X117.34Y-89.0
X117.34Y-98.94
X117.34Y-106.56
X117.34Y-116.5
X117.34Y-124.12
X119.88Y-81.38
X119.88Y-89.0
X119.88Y-98.94
X119.88Y-106.56
X119.88Y-116.5
X119.88Y-124.12
X122.42Y-81.38
X122.42Y-89.0
X122.42Y-98.94
X122.42Y-106.56
X122.42Y-116.5
X122.42Y-124.12
X124.96Y-81.38
X124.96Y-89.0
X124.96Y-98.94
X124.96Y-106.56
X124.96Y-116.5
X124.96Y-124.12
X127.5Y-81.38
X127.5Y-89.0
X127.5Y-98.94
X127.5Y-106.56
X127.5Y-116.5
X127.5Y-124.12
X130.04Y-81.38
X130.04Y-89.0
X130.04Y-98.94
X130.04Y-106.56
X130.04Y-116.5
X130.04Y-124.12
T3
X56.92Y-111.45
X56.92Y-115.5
X66.92Y-95.0
X67.08Y-111.45
X67.08Y-115.5
X77.08Y-95.0
X80.8Y-79.597
X80.8Y-82.137
X80.8Y-84.677
X80.8Y-87.217
X80.8Y-89.757
X80.8Y-92.297
X80.8Y-94.837
X80.8Y-97.377
X80.8Y-99.917
X80.8Y-102.457
X80.8Y-104.997
X80.8Y-107.537
X80.8Y-110.077
X80.8Y-112.617
X80.8Y-115.157
X80.8Y-117.697
X80.8Y-120.237
X80.8Y-122.777
X80.8Y-125.317
X106.196Y-122.774
X106.196Y-125.314
X106.2Y-79.597
X106.2Y-82.137
X106.2Y-84.677
X106.2Y-87.217
X106.2Y-89.757
X106.2Y-92.297
X106.2Y-94.837
X106.2Y-97.377
X106.2Y-99.917
X106.2Y-102.457
X106.2Y-104.997
X106.2Y-107.537
X106.2Y-110.077
X106.2Y-112.617
X106.2Y-115.157
X106.2Y-117.697
X106.2Y-120.237
X135.445Y-79.0
X135.445Y-84.444
X135.445Y-89.889
X135.445Y-95.333
X135.445Y-100.778
X135.445Y-106.222
X135.445Y-111.667
X135.445Y-117.111
X135.445Y-122.556
X135.445Y-128.0
X145.605Y-79.0
X145.605Y-84.444
X145.605Y-89.889
X145.605Y-95.333
X145.605Y-100.778
X145.605Y-106.222
X145.605Y-111.667
X145.605Y-117.111
X145.605Y-122.556
X145.605Y-128.0
T4
X49.0Y-119.5
X49.0Y-122.0
X49.0Y-124.5
X49.0Y-127.0
X157.525Y-78.5
X157.525Y-81.0
X157.525Y-83.5
X157.525Y-98.25
X157.525Y-100.75
X157.525Y-103.25
X157.525Y-105.75
X157.525Y-120.5
X157.525Y-123.0
X157.525Y-125.5
X157.525Y-128.0
T5
X49.0Y-82.0
X49.0Y-91.0
X49.0Y-108.5
X49.0Y-111.0
X51.5Y-82.0
X51.5Y-91.0
X59.0Y-82.0
X59.0Y-91.0
X59.0Y-98.5
X61.5Y-82.0
X61.5Y-91.0
X61.5Y-98.5
X69.0Y-82.0
X71.5Y-82.0
X73.0Y-105.26
X73.0Y-107.8
X73.0Y-110.34
X73.0Y-112.88
X73.0Y-115.42
X73.0Y-117.96
X73.0Y-120.5
X73.0Y-123.04
X73.0Y-125.58
X73.0Y-128.12
X115.5Y-131.0
X118.0Y-131.0
M30
